<svg xmlns="http://www.w3.org/2000/svg" xmlns:xlink="http://www.w3.org/1999/xlink" width="300" zoomAndPan="magnify" viewBox="0 0 224.87999 74.999997" height="100" preserveAspectRatio="xMidYMid meet" version="1.0"><defs><g/><clipPath id="20f4b61954"><path d="M 203 25 L 224.761719 25 L 224.761719 47 L 203 47 Z M 203 25 " clip-rule="nonzero"/></clipPath></defs><g fill="#d2261a" fill-opacity="1"><g transform="translate(2.474373, 45.595688)"><g><path d="M 7.5625 -6.5625 C 8.78125 -7.78125 10.390625 -9.535156 12.390625 -11.828125 C 12.472656 -11.910156 12.539062 -11.953125 12.59375 -11.953125 C 12.65625 -11.953125 12.6875 -11.894531 12.6875 -11.78125 C 12.6875 -11.226562 12.472656 -10.691406 12.046875 -10.171875 C 9.898438 -7.796875 8 -5.8125 6.34375 -4.21875 C 2.863281 -0.851562 0.5625 0.828125 -0.5625 0.828125 C -0.96875 0.828125 -1.171875 0.566406 -1.171875 0.046875 C -1.171875 -0.566406 -0.9375 -1.476562 -0.46875 -2.6875 C -0.0078125 -3.90625 0.445312 -4.976562 0.90625 -5.90625 L 1.609375 -7.265625 C 2.273438 -8.453125 3.375 -10.476562 4.90625 -13.34375 C 6.445312 -16.207031 7.929688 -18.914062 9.359375 -21.46875 C 10.796875 -24.019531 12.15625 -26.328125 13.4375 -28.390625 L 10 -28.390625 C 9.707031 -28.390625 9.5625 -28.457031 9.5625 -28.59375 C 9.5625 -28.738281 9.675781 -28.882812 9.90625 -29.03125 C 10.144531 -29.175781 10.394531 -29.25 10.65625 -29.25 C 11.289062 -29.25 12.40625 -29.265625 14 -29.296875 C 15.414062 -31.523438 16.628906 -33.289062 17.640625 -34.59375 C 18.546875 -35.726562 19.171875 -36.296875 19.515625 -36.296875 C 19.722656 -36.296875 19.828125 -36.164062 19.828125 -35.90625 C 19.828125 -35.300781 19.273438 -34 18.171875 -32 L 16.6875 -29.296875 L 21.171875 -29.296875 C 21.429688 -29.296875 21.5625 -29.222656 21.5625 -29.078125 C 21.5625 -28.617188 21.140625 -28.390625 20.296875 -28.390625 L 16.21875 -28.390625 C 9.519531 -15.691406 6 -9.039062 5.65625 -8.4375 C 4.4375 -6.195312 3.828125 -4.75 3.828125 -4.09375 C 3.828125 -3.882812 3.898438 -3.78125 4.046875 -3.78125 C 4.453125 -3.78125 5.625 -4.707031 7.5625 -6.5625 Z M 7.5625 -6.5625 "/></g></g></g><g fill="#d2261a" fill-opacity="1"><g transform="translate(10.733087, 45.595688)"><g><path d="M 15.65625 -6.5625 C 16.863281 -7.78125 18.46875 -9.535156 20.46875 -11.828125 C 20.5625 -11.910156 20.632812 -11.953125 20.6875 -11.953125 C 20.75 -11.953125 20.78125 -11.894531 20.78125 -11.78125 C 20.78125 -11.226562 20.5625 -10.691406 20.125 -10.171875 C 17.976562 -7.796875 16.082031 -5.8125 14.4375 -4.21875 C 10.957031 -1 8.664062 0.609375 7.5625 0.609375 C 7.125 0.609375 6.90625 0.332031 6.90625 -0.21875 C 6.90625 -1.257812 7.5 -2.84375 8.6875 -4.96875 C 9.875 -7.101562 11.054688 -9.085938 12.234375 -10.921875 C 13.410156 -12.765625 14 -13.847656 14 -14.171875 C 14 -14.347656 13.910156 -14.4375 13.734375 -14.4375 C 13.035156 -14.4375 11.71875 -13.363281 9.78125 -11.21875 C 7.84375 -9.070312 6.207031 -7.144531 4.875 -5.4375 C 3.394531 -3.582031 2.109375 -2.101562 1.015625 -1 C -0.0664062 0.101562 -0.78125 0.726562 -1.125 0.875 L -1.6875 1.125 C -1.957031 1.125 -2.09375 0.984375 -2.09375 0.703125 C -2.09375 0.234375 -1.828125 -0.59375 -1.296875 -1.78125 C -0.773438 -2.96875 -0.253906 -4.039062 0.265625 -5 L 1.046875 -6.4375 L 7.828125 -18.609375 C 13.160156 -28.023438 17.363281 -34.71875 20.4375 -38.6875 C 21.300781 -39.84375 21.90625 -40.421875 22.25 -40.421875 C 22.425781 -40.421875 22.515625 -40.304688 22.515625 -40.078125 C 22.515625 -39.472656 22.050781 -38.226562 21.125 -36.34375 C 16.570312 -28.132812 13.414062 -22.453125 11.65625 -19.296875 C 10.582031 -17.390625 9.609375 -15.6875 8.734375 -14.1875 C 7.867188 -12.695312 7.253906 -11.644531 6.890625 -11.03125 C 6.523438 -10.425781 6.210938 -9.898438 5.953125 -9.453125 C 5.691406 -9.003906 5.488281 -8.617188 5.34375 -8.296875 C 5.3125 -8.210938 5.296875 -8.128906 5.296875 -8.046875 C 5.296875 -7.898438 5.328125 -7.828125 5.390625 -7.828125 C 5.453125 -7.828125 5.566406 -7.910156 5.734375 -8.078125 C 12.222656 -15.296875 16.484375 -18.90625 18.515625 -18.90625 C 18.921875 -18.90625 19.125 -18.703125 19.125 -18.296875 C 19.125 -18.179688 19.066406 -17.925781 18.953125 -17.53125 C 18.835938 -17.144531 18.503906 -16.359375 17.953125 -15.171875 C 17.398438 -13.984375 16.675781 -12.664062 15.78125 -11.21875 C 15.226562 -10.40625 14.53125 -9.242188 13.6875 -7.734375 C 12.851562 -6.234375 12.4375 -5.25 12.4375 -4.78125 C 12.4375 -4.519531 12.566406 -4.390625 12.828125 -4.390625 C 12.910156 -4.390625 13.03125 -4.425781 13.1875 -4.5 C 13.351562 -4.570312 13.535156 -4.691406 13.734375 -4.859375 C 13.941406 -5.035156 14.125 -5.195312 14.28125 -5.34375 C 14.4375 -5.488281 14.664062 -5.695312 14.96875 -5.96875 C 15.28125 -6.25 15.507812 -6.445312 15.65625 -6.5625 Z M 15.65625 -6.5625 "/></g></g></g><g fill="#d2261a" fill-opacity="1"><g transform="translate(27.076647, 45.595688)"><g><path d="M 11.953125 -14.734375 C 12.296875 -15.460938 12.46875 -16.101562 12.46875 -16.65625 C 12.46875 -17.113281 12.328125 -17.34375 12.046875 -17.34375 C 11.867188 -17.34375 11.671875 -17.289062 11.453125 -17.1875 C 11.234375 -17.09375 11.066406 -16.984375 10.953125 -16.859375 L 10.734375 -16.6875 C 9.835938 -15.90625 8.710938 -14.476562 7.359375 -12.40625 C 6.015625 -10.332031 5.34375 -9.007812 5.34375 -8.4375 C 5.34375 -8.320312 5.375 -8.265625 5.4375 -8.265625 C 5.601562 -8.265625 5.984375 -8.40625 6.578125 -8.6875 C 7.179688 -8.976562 8.039062 -9.660156 9.15625 -10.734375 C 10.269531 -11.804688 11.203125 -13.140625 11.953125 -14.734375 Z M 10 -4.78125 C 11.53125 -6.195312 13.734375 -8.546875 16.609375 -11.828125 C 16.691406 -11.910156 16.757812 -11.953125 16.8125 -11.953125 C 16.875 -11.953125 16.90625 -11.894531 16.90625 -11.78125 C 16.90625 -11.226562 16.6875 -10.691406 16.25 -10.171875 C 14.113281 -7.796875 12.21875 -5.8125 10.5625 -4.21875 C 9.34375 -3 7.890625 -1.832031 6.203125 -0.71875 C 4.523438 0.394531 3.140625 0.953125 2.046875 0.953125 C 0.710938 0.953125 0.046875 0.0234375 0.046875 -1.828125 C 0.046875 -4.898438 1.179688 -8.113281 3.453125 -11.46875 C 5.734375 -14.832031 8.363281 -17.109375 11.34375 -18.296875 C 12.59375 -18.816406 13.722656 -19.078125 14.734375 -19.078125 C 15.867188 -19.078125 16.4375 -18.628906 16.4375 -17.734375 C 16.4375 -16.054688 15.242188 -14.128906 12.859375 -11.953125 C 10.484375 -9.773438 7.820312 -8.125 4.875 -7 C 4.75 -6.96875 4.644531 -6.863281 4.5625 -6.6875 C 4.125 -5.5 3.90625 -4.441406 3.90625 -3.515625 C 3.90625 -2.472656 4.296875 -1.953125 5.078125 -1.953125 C 6.328125 -1.953125 7.96875 -2.894531 10 -4.78125 Z M 10 -4.78125 "/></g></g></g><g fill="#d2261a" fill-opacity="1"><g transform="translate(39.555, 45.595688)"><g/></g></g><g fill="#d2261a" fill-opacity="1"><g transform="translate(47.379042, 45.595688)"><g><path d="M 10.21875 -7.265625 C 10.332031 -7.492188 10.390625 -7.648438 10.390625 -7.734375 L 9.953125 -7.4375 C 9.054688 -6.394531 8.019531 -5.320312 6.84375 -4.21875 C 5.664062 -3.113281 4.71875 -2.257812 4 -1.65625 L 2.90625 -0.78125 C 1.71875 0.0820312 0.820312 0.515625 0.21875 0.515625 C -0.363281 0.515625 -0.65625 0.0976562 -0.65625 -0.734375 C -0.65625 -2.828125 0.109375 -5.289062 1.640625 -8.125 C 3.179688 -10.96875 5.175781 -13.460938 7.625 -15.609375 C 10.070312 -17.753906 12.398438 -18.828125 14.609375 -18.828125 C 15.035156 -18.828125 15.398438 -18.773438 15.703125 -18.671875 C 16.015625 -18.566406 16.234375 -18.46875 16.359375 -18.375 C 16.492188 -18.289062 16.578125 -18.25 16.609375 -18.25 C 16.660156 -18.25 16.734375 -18.296875 16.828125 -18.390625 C 16.992188 -18.617188 17.210938 -18.90625 17.484375 -19.25 C 17.765625 -19.601562 18.238281 -20.078125 18.90625 -20.671875 C 19.570312 -21.265625 20.109375 -21.5625 20.515625 -21.5625 C 20.722656 -21.5625 20.828125 -21.414062 20.828125 -21.125 C 20.828125 -20.71875 20.625 -20.109375 20.21875 -19.296875 C 17.113281 -13.585938 15.226562 -10.140625 14.5625 -8.953125 C 14.332031 -8.515625 13.800781 -7.578125 12.96875 -6.140625 C 12.144531 -4.710938 11.5625 -3.695312 11.21875 -3.09375 C 13.039062 -4.5625 14.546875 -5.832031 15.734375 -6.90625 C 17.003906 -8.238281 18.5 -9.878906 20.21875 -11.828125 C 20.300781 -11.910156 20.367188 -11.953125 20.421875 -11.953125 C 20.484375 -11.953125 20.515625 -11.894531 20.515625 -11.78125 C 20.515625 -11.226562 20.296875 -10.691406 19.859375 -10.171875 C 18.585938 -8.773438 17.488281 -7.585938 16.5625 -6.609375 C 15.34375 -5.328125 13.171875 -3.472656 10.046875 -1.046875 L 8.90625 1.046875 C 3.3125 11.328125 -0.539062 18.019531 -2.65625 21.125 C -2.851562 21.445312 -3.109375 21.832031 -3.421875 22.28125 C -3.742188 22.726562 -4.265625 23.332031 -4.984375 24.09375 C -5.710938 24.863281 -6.296875 25.25 -6.734375 25.25 C -7.429688 25.25 -7.78125 24.25 -7.78125 22.25 C -7.78125 19.300781 -6.722656 16.085938 -4.609375 12.609375 C -2.378906 8.921875 1.097656 5.140625 5.828125 1.265625 Z M 16 -17.390625 C 16.03125 -17.421875 16.046875 -17.476562 16.046875 -17.5625 C 16.046875 -17.757812 15.8125 -17.859375 15.34375 -17.859375 C 14.1875 -17.859375 12.691406 -16.957031 10.859375 -15.15625 C 9.035156 -13.363281 7.457031 -11.394531 6.125 -9.25 C 4.789062 -7.113281 4.125 -5.535156 4.125 -4.515625 C 4.125 -4.109375 4.300781 -3.90625 4.65625 -3.90625 C 4.96875 -3.90625 5.375 -4.109375 5.875 -4.515625 C 6.300781 -4.890625 6.882812 -5.414062 7.625 -6.09375 C 8.363281 -6.78125 9.628906 -8.238281 11.421875 -10.46875 C 13.222656 -12.707031 14.75 -15.015625 16 -17.390625 Z M -3.515625 12.515625 C -3.753906 12.867188 -4.03125 13.328125 -4.34375 13.890625 C -4.664062 14.453125 -5.101562 15.421875 -5.65625 16.796875 C -6.207031 18.171875 -6.484375 19.320312 -6.484375 20.25 C -6.484375 20.75 -6.394531 21 -6.21875 21 C -6.070312 21 -5.851562 20.859375 -5.5625 20.578125 C -5.269531 20.304688 -5.023438 20.023438 -4.828125 19.734375 L -4.515625 19.296875 C -2.085938 15.535156 0.976562 10.21875 4.6875 3.34375 C 1.039062 6.5 -1.691406 9.554688 -3.515625 12.515625 Z M -3.515625 12.515625 "/></g></g></g><g fill="#d2261a" fill-opacity="1"><g transform="translate(63.461798, 45.595688)"><g><path d="M 6 -4.21875 C 2.601562 -1.03125 0.429688 0.5625 -0.515625 0.5625 C -1.015625 0.5625 -1.265625 0.226562 -1.265625 -0.4375 C -1.265625 -1.101562 -1.003906 -2.070312 -0.484375 -3.34375 C 0.0351562 -4.625 0.5625 -5.738281 1.09375 -6.6875 L 1.875 -8.078125 C 4.070312 -11.929688 5.738281 -14.703125 6.875 -16.390625 C 7.363281 -17.109375 7.988281 -17.722656 8.75 -18.234375 C 9.519531 -18.742188 10.238281 -19 10.90625 -19 C 11.144531 -19 11.265625 -18.894531 11.265625 -18.6875 C 11.265625 -18.539062 11.160156 -18.265625 10.953125 -17.859375 C 10.609375 -17.222656 9.753906 -15.703125 8.390625 -13.296875 C 7.023438 -10.890625 6.210938 -9.441406 5.953125 -8.953125 C 4.765625 -6.867188 4.171875 -5.476562 4.171875 -4.78125 C 4.171875 -4.519531 4.257812 -4.390625 4.4375 -4.390625 C 4.726562 -4.390625 5.65625 -5.113281 7.21875 -6.5625 C 8.4375 -7.78125 10.046875 -9.535156 12.046875 -11.828125 C 12.128906 -11.910156 12.195312 -11.953125 12.25 -11.953125 C 12.3125 -11.953125 12.34375 -11.894531 12.34375 -11.78125 C 12.34375 -11.226562 12.125 -10.691406 11.6875 -10.171875 C 9.539062 -7.796875 7.644531 -5.8125 6 -4.21875 Z M 11.78125 -21.46875 C 11.050781 -21.46875 10.6875 -21.90625 10.6875 -22.78125 C 10.6875 -23.59375 10.988281 -24.410156 11.59375 -25.234375 C 12.207031 -26.054688 12.878906 -26.46875 13.609375 -26.46875 C 14.472656 -26.46875 14.90625 -25.976562 14.90625 -25 C 14.90625 -24.1875 14.570312 -23.394531 13.90625 -22.625 C 13.238281 -21.851562 12.53125 -21.46875 11.78125 -21.46875 Z M 11.78125 -21.46875 "/></g></g></g><g fill="#d2261a" fill-opacity="1"><g transform="translate(71.372778, 45.595688)"><g><path d="M 10.90625 -9 C 10.675781 -9 10.5625 -9.085938 10.5625 -9.265625 C 10.5625 -9.347656 10.601562 -9.460938 10.6875 -9.609375 C 12.40625 -12.273438 13.265625 -14.097656 13.265625 -15.078125 C 13.265625 -15.335938 13.160156 -15.46875 12.953125 -15.46875 C 12.085938 -15.46875 10.046875 -13.5 6.828125 -9.5625 C 5.867188 -8.34375 4.972656 -7.082031 4.140625 -5.78125 C 3.316406 -4.476562 2.75 -3.476562 2.4375 -2.78125 L 1.90625 -1.78125 C 1.5625 -1.082031 1.023438 -0.4375 0.296875 0.15625 C -0.421875 0.75 -1.171875 1.046875 -1.953125 1.046875 C -2.359375 1.046875 -2.5625 0.941406 -2.5625 0.734375 C -2.5625 0.566406 -2.4375 0.207031 -2.1875 -0.34375 C -1.945312 -0.894531 -1.648438 -1.503906 -1.296875 -2.171875 C -0.953125 -2.835938 -0.601562 -3.488281 -0.25 -4.125 C 0.09375 -4.757812 0.378906 -5.296875 0.609375 -5.734375 L 1 -6.390625 L 5.5625 -14.34375 C 7.332031 -17.675781 9.1875 -19.34375 11.125 -19.34375 C 11.382812 -19.34375 11.515625 -19.242188 11.515625 -19.046875 C 11.515625 -18.773438 10.882812 -17.691406 9.625 -15.796875 C 8.363281 -13.898438 7.632812 -12.691406 7.4375 -12.171875 C 7.375 -11.992188 7.34375 -11.890625 7.34375 -11.859375 C 7.34375 -11.804688 7.367188 -11.78125 7.421875 -11.78125 C 7.484375 -11.78125 7.585938 -11.851562 7.734375 -12 C 9.910156 -14.457031 12.21875 -16.644531 14.65625 -18.5625 C 14.789062 -18.707031 15.101562 -18.914062 15.59375 -19.1875 C 16.09375 -19.46875 16.53125 -19.609375 16.90625 -19.609375 C 17.457031 -19.609375 17.734375 -19.128906 17.734375 -18.171875 C 17.734375 -17.128906 17.382812 -15.882812 16.6875 -14.4375 C 16 -12.988281 15.054688 -11.710938 13.859375 -10.609375 L 13.6875 -10.4375 C 13.570312 -10.34375 13.445312 -10.242188 13.3125 -10.140625 C 13.1875 -10.046875 13.019531 -9.925781 12.8125 -9.78125 C 12.613281 -9.632812 12.410156 -9.507812 12.203125 -9.40625 C 12.003906 -9.3125 11.789062 -9.21875 11.5625 -9.125 C 11.332031 -9.039062 11.113281 -9 10.90625 -9 Z M 10.90625 -9 "/></g></g></g><g fill="#d2261a" fill-opacity="1"><g transform="translate(84.065117, 45.595688)"><g><path d="M 12.65625 -21.171875 C 14.707031 -22.617188 16.550781 -24.257812 18.1875 -26.09375 C 19.820312 -27.9375 21.066406 -29.632812 21.921875 -31.1875 C 22.785156 -32.738281 23.429688 -34.078125 23.859375 -35.203125 C 24.296875 -36.335938 24.515625 -37.148438 24.515625 -37.640625 C 24.515625 -37.929688 24.414062 -38.078125 24.21875 -38.078125 C 23.8125 -38.078125 23.316406 -37.785156 22.734375 -37.203125 C 21.628906 -36.109375 20.378906 -34.515625 18.984375 -32.421875 C 17.597656 -30.335938 16.476562 -28.550781 15.625 -27.0625 C 14.769531 -25.570312 13.660156 -23.578125 12.296875 -21.078125 C 12.410156 -21.078125 12.53125 -21.109375 12.65625 -21.171875 Z M 8 -6.5625 C 9.21875 -7.78125 10.828125 -9.535156 12.828125 -11.828125 C 12.910156 -11.910156 12.976562 -11.953125 13.03125 -11.953125 C 13.09375 -11.953125 13.125 -11.894531 13.125 -11.78125 C 13.125 -11.226562 12.90625 -10.691406 12.46875 -10.171875 C 10.332031 -7.796875 8.4375 -5.8125 6.78125 -4.21875 C 3.15625 -0.800781 0.851562 0.90625 -0.125 0.90625 C -0.5625 0.90625 -0.78125 0.601562 -0.78125 0 C -0.78125 -0.320312 -0.742188 -0.671875 -0.671875 -1.046875 C -0.597656 -1.421875 -0.472656 -1.832031 -0.296875 -2.28125 C -0.128906 -2.726562 0.015625 -3.101562 0.140625 -3.40625 C 0.273438 -3.71875 0.46875 -4.15625 0.71875 -4.71875 C 0.96875 -5.28125 1.132812 -5.664062 1.21875 -5.875 C 2.03125 -7.695312 4.519531 -12.503906 8.6875 -20.296875 C 14.394531 -30.703125 19.640625 -37.09375 24.421875 -39.46875 C 25.117188 -39.8125 25.816406 -39.984375 26.515625 -39.984375 C 27.328125 -39.984375 27.734375 -39.609375 27.734375 -38.859375 C 27.734375 -37.117188 27.140625 -35.210938 25.953125 -33.140625 C 24.765625 -31.066406 23.316406 -29.160156 21.609375 -27.421875 C 19.898438 -25.691406 18.222656 -24.171875 16.578125 -22.859375 C 14.941406 -21.554688 13.53125 -20.570312 12.34375 -19.90625 C 12.164062 -19.851562 12.003906 -19.722656 11.859375 -19.515625 C 10.585938 -17.460938 9.34375 -15.253906 8.125 -12.890625 C 6.90625 -10.523438 5.992188 -8.660156 5.390625 -7.296875 L 4.515625 -5.296875 C 4.367188 -4.867188 4.296875 -4.582031 4.296875 -4.4375 C 4.296875 -4.175781 4.398438 -4.046875 4.609375 -4.046875 C 5.191406 -4.046875 6.320312 -4.882812 8 -6.5625 Z M 8 -6.5625 "/></g></g></g><g fill="#d2261a" fill-opacity="1"><g transform="translate(92.758498, 45.595688)"><g/></g></g><g fill="#d2261a" fill-opacity="1"><g transform="translate(100.58254, 45.595688)"><g><path d="M 14.5625 -4.21875 C 11.164062 -1.03125 8.9375 0.5625 7.875 0.5625 C 7.375 0.5625 7.125 0.300781 7.125 -0.21875 C 7.125 -0.539062 7.195312 -0.9375 7.34375 -1.40625 C 7.488281 -1.882812 7.671875 -2.363281 7.890625 -2.84375 C 8.109375 -3.320312 8.316406 -3.765625 8.515625 -4.171875 C 8.722656 -4.578125 8.925781 -4.953125 9.125 -5.296875 C 9.332031 -5.648438 9.4375 -5.84375 9.4375 -5.875 C 9.863281 -6.65625 10.507812 -7.75 11.375 -9.15625 C 12.25 -10.5625 12.945312 -11.71875 13.46875 -12.625 C 13.988281 -13.539062 14.25 -14.097656 14.25 -14.296875 C 14.25 -14.441406 14.179688 -14.515625 14.046875 -14.515625 L 13.4375 -14.296875 C 12.101562 -13.335938 10.507812 -11.851562 8.65625 -9.84375 C 6.800781 -7.832031 5.28125 -6.054688 4.09375 -4.515625 L 2.296875 -2.265625 C 1.921875 -1.710938 1.585938 -1.257812 1.296875 -0.90625 C 1.015625 -0.5625 0.601562 -0.222656 0.0625 0.109375 C -0.46875 0.441406 -1.007812 0.609375 -1.5625 0.609375 C -1.96875 0.609375 -2.171875 0.488281 -2.171875 0.25 C -2.171875 0.0195312 -1.894531 -0.648438 -1.34375 -1.765625 C -0.789062 -2.878906 -0.242188 -3.941406 0.296875 -4.953125 L 1.125 -6.4375 L 5.390625 -13.90625 C 5.828125 -14.632812 6.179688 -15.191406 6.453125 -15.578125 C 6.734375 -15.972656 7.117188 -16.46875 7.609375 -17.0625 C 8.097656 -17.65625 8.625 -18.097656 9.1875 -18.390625 C 9.757812 -18.679688 10.363281 -18.851562 11 -18.90625 C 11.226562 -18.90625 11.34375 -18.804688 11.34375 -18.609375 C 11.34375 -18.429688 11.300781 -18.285156 11.21875 -18.171875 C 10.550781 -17.128906 9.523438 -15.40625 8.140625 -13 C 6.765625 -10.59375 5.890625 -9.023438 5.515625 -8.296875 C 5.429688 -8.128906 5.390625 -8 5.390625 -7.90625 C 5.390625 -7.851562 5.414062 -7.828125 5.46875 -7.828125 C 5.53125 -7.828125 5.675781 -7.910156 5.90625 -8.078125 C 6.457031 -8.722656 7.175781 -9.519531 8.0625 -10.46875 C 8.945312 -11.425781 10.445312 -12.867188 12.5625 -14.796875 C 14.675781 -16.722656 16.414062 -18.019531 17.78125 -18.6875 C 18.09375 -18.832031 18.394531 -18.90625 18.6875 -18.90625 C 19.09375 -18.90625 19.296875 -18.675781 19.296875 -18.21875 C 19.066406 -16.851562 17.953125 -14.519531 15.953125 -11.21875 C 13.753906 -7.59375 12.65625 -5.445312 12.65625 -4.78125 C 12.65625 -4.550781 12.753906 -4.4375 12.953125 -4.4375 C 13.097656 -4.4375 13.265625 -4.484375 13.453125 -4.578125 C 13.640625 -4.679688 13.847656 -4.828125 14.078125 -5.015625 C 14.316406 -5.203125 14.515625 -5.367188 14.671875 -5.515625 C 14.828125 -5.660156 15.035156 -5.859375 15.296875 -6.109375 C 15.554688 -6.359375 15.71875 -6.507812 15.78125 -6.5625 C 17 -7.78125 18.609375 -9.535156 20.609375 -11.828125 C 20.691406 -11.910156 20.757812 -11.953125 20.8125 -11.953125 C 20.875 -11.953125 20.90625 -11.894531 20.90625 -11.78125 C 20.90625 -11.226562 20.6875 -10.691406 20.25 -10.171875 C 18.113281 -7.796875 16.21875 -5.8125 14.5625 -4.21875 Z M 14.5625 -4.21875 "/></g></g></g><g fill="#d2261a" fill-opacity="1"><g transform="translate(117.058667, 45.595688)"><g><path d="M 11.953125 -14.734375 C 12.296875 -15.460938 12.46875 -16.101562 12.46875 -16.65625 C 12.46875 -17.113281 12.328125 -17.34375 12.046875 -17.34375 C 11.867188 -17.34375 11.671875 -17.289062 11.453125 -17.1875 C 11.234375 -17.09375 11.066406 -16.984375 10.953125 -16.859375 L 10.734375 -16.6875 C 9.835938 -15.90625 8.710938 -14.476562 7.359375 -12.40625 C 6.015625 -10.332031 5.34375 -9.007812 5.34375 -8.4375 C 5.34375 -8.320312 5.375 -8.265625 5.4375 -8.265625 C 5.601562 -8.265625 5.984375 -8.40625 6.578125 -8.6875 C 7.179688 -8.976562 8.039062 -9.660156 9.15625 -10.734375 C 10.269531 -11.804688 11.203125 -13.140625 11.953125 -14.734375 Z M 10 -4.78125 C 11.53125 -6.195312 13.734375 -8.546875 16.609375 -11.828125 C 16.691406 -11.910156 16.757812 -11.953125 16.8125 -11.953125 C 16.875 -11.953125 16.90625 -11.894531 16.90625 -11.78125 C 16.90625 -11.226562 16.6875 -10.691406 16.25 -10.171875 C 14.113281 -7.796875 12.21875 -5.8125 10.5625 -4.21875 C 9.34375 -3 7.890625 -1.832031 6.203125 -0.71875 C 4.523438 0.394531 3.140625 0.953125 2.046875 0.953125 C 0.710938 0.953125 0.046875 0.0234375 0.046875 -1.828125 C 0.046875 -4.898438 1.179688 -8.113281 3.453125 -11.46875 C 5.734375 -14.832031 8.363281 -17.109375 11.34375 -18.296875 C 12.59375 -18.816406 13.722656 -19.078125 14.734375 -19.078125 C 15.867188 -19.078125 16.4375 -18.628906 16.4375 -17.734375 C 16.4375 -16.054688 15.242188 -14.128906 12.859375 -11.953125 C 10.484375 -9.773438 7.820312 -8.125 4.875 -7 C 4.75 -6.96875 4.644531 -6.863281 4.5625 -6.6875 C 4.125 -5.5 3.90625 -4.441406 3.90625 -3.515625 C 3.90625 -2.472656 4.296875 -1.953125 5.078125 -1.953125 C 6.328125 -1.953125 7.96875 -2.894531 10 -4.78125 Z M 10 -4.78125 "/></g></g></g><g fill="#d2261a" fill-opacity="1"><g transform="translate(129.533669, 45.595688)"><g><path d="M 11 -2.734375 C 8.9375 -0.765625 7.5625 0.21875 6.875 0.21875 C 6.34375 0.21875 5.976562 -0.1875 5.78125 -1 C 5.582031 -1.8125 5.484375 -3.128906 5.484375 -4.953125 C 5.484375 -5.910156 5.539062 -7.375 5.65625 -9.34375 C 3.851562 -7.488281 2.320312 -5.675781 1.0625 -3.90625 C -0.195312 -2.144531 -1.015625 -0.84375 -1.390625 0 L -1.90625 1.21875 C -2.082031 1.769531 -2.300781 2.046875 -2.5625 2.046875 C -2.789062 2.046875 -2.984375 1.753906 -3.140625 1.171875 C -3.304688 0.585938 -3.390625 0.109375 -3.390625 -0.265625 C -3.390625 -0.609375 -3.34375 -0.914062 -3.25 -1.1875 C -3.164062 -1.46875 -3.082031 -1.648438 -3 -1.734375 L -2.875 -1.90625 C -0.113281 -4.832031 2.753906 -7.75 5.734375 -10.65625 C 5.960938 -13.320312 6.078125 -14.796875 6.078125 -15.078125 C 6.078125 -15.316406 6.070312 -15.539062 6.0625 -15.75 C 6.050781 -15.96875 6.035156 -16.15625 6.015625 -16.3125 C 6.003906 -16.476562 5.988281 -16.632812 5.96875 -16.78125 C 5.957031 -16.925781 5.9375 -17.039062 5.90625 -17.125 C 5.882812 -17.207031 5.859375 -17.285156 5.828125 -17.359375 C 5.796875 -17.429688 5.769531 -17.488281 5.75 -17.53125 C 5.738281 -17.582031 5.722656 -17.617188 5.703125 -17.640625 C 5.691406 -17.671875 5.675781 -17.703125 5.65625 -17.734375 C 5.59375 -17.796875 5.5625 -17.851562 5.5625 -17.90625 C 5.5625 -18.257812 5.894531 -18.660156 6.5625 -19.109375 C 7.226562 -19.554688 7.789062 -19.78125 8.25 -19.78125 C 8.71875 -19.78125 8.953125 -19.203125 8.953125 -18.046875 C 8.953125 -17.054688 8.894531 -15.546875 8.78125 -13.515625 C 11.820312 -16.359375 14.066406 -18.1875 15.515625 -19 C 16.210938 -19.34375 16.675781 -19.515625 16.90625 -19.515625 C 17.257812 -19.515625 17.535156 -19.179688 17.734375 -18.515625 C 17.941406 -17.847656 18.046875 -17.285156 18.046875 -16.828125 C 18.046875 -16.617188 17.972656 -16.5 17.828125 -16.46875 C 17.703125 -16.46875 17.503906 -16.613281 17.234375 -16.90625 C 16.960938 -17.195312 16.648438 -17.34375 16.296875 -17.34375 C 15.722656 -17.34375 15.019531 -17.109375 14.1875 -16.640625 C 13.363281 -16.179688 12.675781 -15.71875 12.125 -15.25 L 11.296875 -14.5625 C 10.222656 -13.695312 9.351562 -12.941406 8.6875 -12.296875 C 8.601562 -10.992188 8.5625 -9.707031 8.5625 -8.4375 C 8.5625 -4.894531 8.984375 -3.125 9.828125 -3.125 C 10.253906 -3.125 11.671875 -4.382812 14.078125 -6.90625 C 15.359375 -8.238281 16.851562 -9.878906 18.5625 -11.828125 C 18.644531 -11.910156 18.710938 -11.953125 18.765625 -11.953125 C 18.828125 -11.953125 18.859375 -11.894531 18.859375 -11.78125 C 18.859375 -11.226562 18.644531 -10.691406 18.21875 -10.171875 C 15.695312 -7.359375 13.289062 -4.878906 11 -2.734375 Z M 11 -2.734375 "/></g></g></g><g fill="#d2261a" fill-opacity="1"><g transform="translate(143.964685, 45.595688)"><g><path d="M 7.5625 -6.5625 C 8.78125 -7.78125 10.390625 -9.535156 12.390625 -11.828125 C 12.472656 -11.910156 12.539062 -11.953125 12.59375 -11.953125 C 12.65625 -11.953125 12.6875 -11.894531 12.6875 -11.78125 C 12.6875 -11.226562 12.472656 -10.691406 12.046875 -10.171875 C 9.898438 -7.796875 8 -5.8125 6.34375 -4.21875 C 2.863281 -0.851562 0.5625 0.828125 -0.5625 0.828125 C -0.96875 0.828125 -1.171875 0.566406 -1.171875 0.046875 C -1.171875 -0.566406 -0.9375 -1.476562 -0.46875 -2.6875 C -0.0078125 -3.90625 0.445312 -4.976562 0.90625 -5.90625 L 1.609375 -7.265625 C 2.273438 -8.453125 3.375 -10.476562 4.90625 -13.34375 C 6.445312 -16.207031 7.929688 -18.914062 9.359375 -21.46875 C 10.796875 -24.019531 12.15625 -26.328125 13.4375 -28.390625 L 10 -28.390625 C 9.707031 -28.390625 9.5625 -28.457031 9.5625 -28.59375 C 9.5625 -28.738281 9.675781 -28.882812 9.90625 -29.03125 C 10.144531 -29.175781 10.394531 -29.25 10.65625 -29.25 C 11.289062 -29.25 12.40625 -29.265625 14 -29.296875 C 15.414062 -31.523438 16.628906 -33.289062 17.640625 -34.59375 C 18.546875 -35.726562 19.171875 -36.296875 19.515625 -36.296875 C 19.722656 -36.296875 19.828125 -36.164062 19.828125 -35.90625 C 19.828125 -35.300781 19.273438 -34 18.171875 -32 L 16.6875 -29.296875 L 21.171875 -29.296875 C 21.429688 -29.296875 21.5625 -29.222656 21.5625 -29.078125 C 21.5625 -28.617188 21.140625 -28.390625 20.296875 -28.390625 L 16.21875 -28.390625 C 9.519531 -15.691406 6 -9.039062 5.65625 -8.4375 C 4.4375 -6.195312 3.828125 -4.75 3.828125 -4.09375 C 3.828125 -3.882812 3.898438 -3.78125 4.046875 -3.78125 C 4.453125 -3.78125 5.625 -4.707031 7.5625 -6.5625 Z M 7.5625 -6.5625 "/></g></g></g><g fill="#d2261a" fill-opacity="1"><g transform="translate(152.223805, 45.595688)"><g/></g></g><g fill="#d2261a" fill-opacity="1"><g transform="translate(160.047847, 45.595688)"><g><path d="M 5.828125 -4.65625 C 5.992188 -4.800781 6.226562 -5.007812 6.53125 -5.28125 C 6.84375 -5.550781 7.429688 -6.128906 8.296875 -7.015625 C 9.171875 -7.898438 10.003906 -8.8125 10.796875 -9.75 C 11.597656 -10.695312 12.484375 -11.863281 13.453125 -13.25 C 14.421875 -14.644531 15.253906 -16.023438 15.953125 -17.390625 C 15.984375 -17.441406 16 -17.5 16 -17.5625 L 15.953125 -17.6875 C 15.753906 -17.800781 15.519531 -17.859375 15.25 -17.859375 C 14.007812 -17.859375 12.46875 -16.929688 10.625 -15.078125 C 8.789062 -13.222656 7.226562 -11.226562 5.9375 -9.09375 C 4.644531 -6.96875 4 -5.441406 4 -4.515625 C 4 -4.109375 4.160156 -3.90625 4.484375 -3.90625 C 4.828125 -3.90625 5.273438 -4.15625 5.828125 -4.65625 Z M 15.4375 -6.5625 C 16.644531 -7.78125 18.25 -9.535156 20.25 -11.828125 C 20.34375 -11.910156 20.414062 -11.953125 20.46875 -11.953125 C 20.53125 -11.953125 20.5625 -11.894531 20.5625 -11.78125 C 20.5625 -11.226562 20.34375 -10.691406 19.90625 -10.171875 C 17.757812 -7.796875 15.863281 -5.8125 14.21875 -4.21875 C 10.789062 -1.03125 8.546875 0.5625 7.484375 0.5625 C 7.078125 0.5625 6.875 0.34375 6.875 -0.09375 C 6.875 -0.632812 7.144531 -1.5 7.6875 -2.6875 C 8.238281 -3.882812 8.804688 -4.945312 9.390625 -5.875 L 10.21875 -7.265625 C 10.332031 -7.410156 10.390625 -7.539062 10.390625 -7.65625 C 10.390625 -7.707031 10.359375 -7.734375 10.296875 -7.734375 C 10.179688 -7.734375 10.023438 -7.632812 9.828125 -7.4375 C 8.921875 -6.394531 7.890625 -5.320312 6.734375 -4.21875 C 5.578125 -3.113281 4.632812 -2.257812 3.90625 -1.65625 L 2.875 -0.78125 C 1.707031 0.113281 0.835938 0.5625 0.265625 0.5625 L 0.09375 0.515625 C -0.40625 0.492188 -0.65625 0.0625 -0.65625 -0.78125 C -0.65625 -2.988281 0.117188 -5.503906 1.671875 -8.328125 C 3.222656 -11.148438 5.226562 -13.601562 7.6875 -15.6875 C 10.15625 -17.78125 12.535156 -18.828125 14.828125 -18.828125 C 15.054688 -18.828125 15.269531 -18.800781 15.46875 -18.75 C 15.675781 -18.707031 15.828125 -18.671875 15.921875 -18.640625 C 16.023438 -18.617188 16.125 -18.578125 16.21875 -18.515625 L 16.34375 -18.46875 C 16.40625 -18.46875 16.476562 -18.515625 16.5625 -18.609375 C 21.925781 -28.285156 26.039062 -34.960938 28.90625 -38.640625 C 29.769531 -39.796875 30.394531 -40.375 30.78125 -40.375 C 30.925781 -40.375 31 -40.257812 31 -40.03125 C 31 -39.425781 30.535156 -38.179688 29.609375 -36.296875 C 25.140625 -28.117188 22.007812 -22.453125 20.21875 -19.296875 C 17 -13.554688 15.039062 -10.109375 14.34375 -8.953125 C 12.925781 -6.515625 12.21875 -5.035156 12.21875 -4.515625 C 12.21875 -4.316406 12.300781 -4.21875 12.46875 -4.21875 C 12.613281 -4.21875 12.78125 -4.265625 12.96875 -4.359375 C 13.164062 -4.460938 13.378906 -4.613281 13.609375 -4.8125 C 13.835938 -5.019531 14.046875 -5.210938 14.234375 -5.390625 C 14.421875 -5.566406 14.644531 -5.785156 14.90625 -6.046875 C 15.164062 -6.304688 15.34375 -6.476562 15.4375 -6.5625 Z M 15.4375 -6.5625 "/></g></g></g><g fill="#d2261a" fill-opacity="1"><g transform="translate(176.175182, 45.595688)"><g><path d="M 19 -15.296875 C 19.257812 -15.242188 19.390625 -15.160156 19.390625 -15.046875 C 19.390625 -14.867188 19.273438 -14.664062 19.046875 -14.4375 C 18.722656 -14.113281 18.25 -13.691406 17.625 -13.171875 C 17 -12.648438 16.628906 -12.332031 16.515625 -12.21875 L 15.90625 -11.390625 C 15.300781 -9.679688 14.367188 -7.90625 13.109375 -6.0625 C 11.847656 -4.21875 10.3125 -2.597656 8.5 -1.203125 C 6.6875 0.179688 4.953125 0.875 3.296875 0.875 C 1.242188 0.875 0.21875 -0.382812 0.21875 -2.90625 C 0.21875 -5.144531 0.941406 -7.5625 2.390625 -10.15625 C 3.835938 -12.75 5.710938 -14.960938 8.015625 -16.796875 C 10.316406 -18.640625 12.585938 -19.5625 14.828125 -19.5625 C 16.441406 -19.5625 17.25 -18.921875 17.25 -17.640625 C 17.25 -16.953125 16.90625 -16.015625 16.21875 -14.828125 C 16.1875 -14.796875 16.171875 -14.75 16.171875 -14.6875 C 16.171875 -14.632812 16.195312 -14.609375 16.25 -14.609375 C 17.320312 -15.035156 18.238281 -15.265625 19 -15.296875 Z M 14.859375 -14.25 C 15.097656 -15.269531 15.21875 -16.054688 15.21875 -16.609375 C 15.21875 -17.828125 14.8125 -18.4375 14 -18.4375 C 12.863281 -18.4375 11.457031 -17.390625 9.78125 -15.296875 C 8.101562 -13.210938 6.660156 -10.863281 5.453125 -8.25 C 4.253906 -5.644531 3.65625 -3.59375 3.65625 -2.09375 C 3.65625 -0.988281 4.046875 -0.4375 4.828125 -0.4375 C 6.046875 -0.4375 7.5 -1.648438 9.1875 -4.078125 C 10.882812 -6.515625 11.910156 -8.96875 12.265625 -11.4375 C 12.234375 -11.488281 12.21875 -11.570312 12.21875 -11.6875 C 12.21875 -12.53125 12.96875 -13.285156 14.46875 -13.953125 C 14.707031 -14.035156 14.835938 -14.132812 14.859375 -14.25 Z M 14.859375 -14.25 "/></g></g></g><g fill="#d2261a" fill-opacity="1"><g transform="translate(191.301666, 45.595688)"><g><path d="M 19 -15.296875 C 19.257812 -15.242188 19.390625 -15.160156 19.390625 -15.046875 C 19.390625 -14.867188 19.273438 -14.664062 19.046875 -14.4375 C 18.722656 -14.113281 18.25 -13.691406 17.625 -13.171875 C 17 -12.648438 16.628906 -12.332031 16.515625 -12.21875 L 15.90625 -11.390625 C 15.300781 -9.679688 14.367188 -7.90625 13.109375 -6.0625 C 11.847656 -4.21875 10.3125 -2.597656 8.5 -1.203125 C 6.6875 0.179688 4.953125 0.875 3.296875 0.875 C 1.242188 0.875 0.21875 -0.382812 0.21875 -2.90625 C 0.21875 -5.144531 0.941406 -7.5625 2.390625 -10.15625 C 3.835938 -12.75 5.710938 -14.960938 8.015625 -16.796875 C 10.316406 -18.640625 12.585938 -19.5625 14.828125 -19.5625 C 16.441406 -19.5625 17.25 -18.921875 17.25 -17.640625 C 17.25 -16.953125 16.90625 -16.015625 16.21875 -14.828125 C 16.1875 -14.796875 16.171875 -14.75 16.171875 -14.6875 C 16.171875 -14.632812 16.195312 -14.609375 16.25 -14.609375 C 17.320312 -15.035156 18.238281 -15.265625 19 -15.296875 Z M 14.859375 -14.25 C 15.097656 -15.269531 15.21875 -16.054688 15.21875 -16.609375 C 15.21875 -17.828125 14.8125 -18.4375 14 -18.4375 C 12.863281 -18.4375 11.457031 -17.390625 9.78125 -15.296875 C 8.101562 -13.210938 6.660156 -10.863281 5.453125 -8.25 C 4.253906 -5.644531 3.65625 -3.59375 3.65625 -2.09375 C 3.65625 -0.988281 4.046875 -0.4375 4.828125 -0.4375 C 6.046875 -0.4375 7.5 -1.648438 9.1875 -4.078125 C 10.882812 -6.515625 11.910156 -8.96875 12.265625 -11.4375 C 12.234375 -11.488281 12.21875 -11.570312 12.21875 -11.6875 C 12.21875 -12.53125 12.96875 -13.285156 14.46875 -13.953125 C 14.707031 -14.035156 14.835938 -14.132812 14.859375 -14.25 Z M 14.859375 -14.25 "/></g></g></g><g clip-path="url(#20f4b61954)"><g fill="#d2261a" fill-opacity="1"><g transform="translate(206.42815, 45.595688)"><g><path d="M 10.90625 -9 C 10.675781 -9 10.5625 -9.085938 10.5625 -9.265625 C 10.5625 -9.347656 10.601562 -9.460938 10.6875 -9.609375 C 12.40625 -12.273438 13.265625 -14.097656 13.265625 -15.078125 C 13.265625 -15.335938 13.160156 -15.46875 12.953125 -15.46875 C 12.085938 -15.46875 10.046875 -13.5 6.828125 -9.5625 C 5.867188 -8.34375 4.972656 -7.082031 4.140625 -5.78125 C 3.316406 -4.476562 2.75 -3.476562 2.4375 -2.78125 L 1.90625 -1.78125 C 1.5625 -1.082031 1.023438 -0.4375 0.296875 0.15625 C -0.421875 0.75 -1.171875 1.046875 -1.953125 1.046875 C -2.359375 1.046875 -2.5625 0.941406 -2.5625 0.734375 C -2.5625 0.566406 -2.4375 0.207031 -2.1875 -0.34375 C -1.945312 -0.894531 -1.648438 -1.503906 -1.296875 -2.171875 C -0.953125 -2.835938 -0.601562 -3.488281 -0.25 -4.125 C 0.09375 -4.757812 0.378906 -5.296875 0.609375 -5.734375 L 1 -6.390625 L 5.5625 -14.34375 C 7.332031 -17.675781 9.1875 -19.34375 11.125 -19.34375 C 11.382812 -19.34375 11.515625 -19.242188 11.515625 -19.046875 C 11.515625 -18.773438 10.882812 -17.691406 9.625 -15.796875 C 8.363281 -13.898438 7.632812 -12.691406 7.4375 -12.171875 C 7.375 -11.992188 7.34375 -11.890625 7.34375 -11.859375 C 7.34375 -11.804688 7.367188 -11.78125 7.421875 -11.78125 C 7.484375 -11.78125 7.585938 -11.851562 7.734375 -12 C 9.910156 -14.457031 12.21875 -16.644531 14.65625 -18.5625 C 14.789062 -18.707031 15.101562 -18.914062 15.59375 -19.1875 C 16.09375 -19.46875 16.53125 -19.609375 16.90625 -19.609375 C 17.457031 -19.609375 17.734375 -19.128906 17.734375 -18.171875 C 17.734375 -17.128906 17.382812 -15.882812 16.6875 -14.4375 C 16 -12.988281 15.054688 -11.710938 13.859375 -10.609375 L 13.6875 -10.4375 C 13.570312 -10.34375 13.445312 -10.242188 13.3125 -10.140625 C 13.1875 -10.046875 13.019531 -9.925781 12.8125 -9.78125 C 12.613281 -9.632812 12.410156 -9.507812 12.203125 -9.40625 C 12.003906 -9.3125 11.789062 -9.21875 11.5625 -9.125 C 11.332031 -9.039062 11.113281 -9 10.90625 -9 Z M 10.90625 -9 "/></g></g></g></g></svg>