<svg width="22" height="22" viewBox="0 0 22 22" fill="none" xmlns="http://www.w3.org/2000/svg">
<path d="M15.4 5.50001H17.6V20.9H4.4V5.50001H6.6V4.40001C6.6 3.81654 6.83179 3.25696 7.24437 2.84438C7.65695 2.4318 8.21652 2.20001 8.8 2.20001H13.2C13.7835 2.20001 14.3431 2.4318 14.7556 2.84438C15.1682 3.25696 15.4 3.81654 15.4 4.40001V5.50001ZM18.7 5.50001H19.8C20.3835 5.50001 20.9431 5.7318 21.3556 6.14438C21.7682 6.55696 22 7.11654 22 7.70001V18.7C22 19.2835 21.7682 19.8431 21.3556 20.2556C20.9431 20.6682 20.3835 20.9 19.8 20.9H18.7V5.50001ZM3.3 5.50001V20.9H2.2C1.61652 20.9 1.05695 20.6682 0.644365 20.2556C0.231785 19.8431 0 19.2835 0 18.7V7.70001C0 6.49001 0.99 5.50001 2.2 5.50001H3.3ZM8.8 4.40001V5.50001H13.2V4.40001H8.8Z" fill="#D2261A"/>
</svg>
