<svg width="24" height="24" viewBox="0 0 24 24" fill="none" xmlns="http://www.w3.org/2000/svg">
<g clip-path="url(#clip0_434_17)">
<path fill-rule="evenodd" clip-rule="evenodd" d="M18.7717 16.8129C19.0241 16.6823 19.314 16.652 19.5865 16.7278C19.8591 16.8036 20.0952 16.9802 20.2503 17.2241L20.3171 17.3457L22.622 22.1132C22.7042 22.2833 22.7459 22.4712 22.7436 22.6612C22.7414 22.8513 22.6952 23.0381 22.6089 23.206C22.5226 23.3738 22.3987 23.5179 22.2477 23.6262C22.0966 23.7345 21.9226 23.8038 21.7404 23.8284L21.5917 23.8379H3.1528C2.96895 23.838 2.78776 23.7925 2.62435 23.7054C2.46094 23.6183 2.32006 23.492 2.21347 23.3371C2.10687 23.1821 2.03767 23.0031 2.01162 22.8149C1.98558 22.6266 2.00345 22.4347 2.06376 22.2551L2.12138 22.112L4.42624 17.3445C4.55542 17.0683 4.7826 16.8543 5.06049 16.747C5.33837 16.6396 5.64558 16.6473 5.91816 16.7683C6.19075 16.8893 6.40773 17.1143 6.52394 17.3966C6.64016 17.6788 6.64666 17.9966 6.5421 18.2837L6.48794 18.4112L5.01744 21.4541H19.7271L18.2566 18.4112C18.1201 18.1286 18.0977 17.8015 18.1943 17.5018C18.2909 17.2021 18.4986 16.9543 18.7717 16.8129ZM12.3722 0C14.5118 0 16.5636 0.87902 18.0765 2.44369C19.5893 4.00835 20.4393 6.13049 20.4393 8.34327C20.4393 11.1824 18.9538 13.4887 17.4164 15.1251C16.5673 16.0173 15.6338 16.8191 14.6299 17.5185L14.2 17.8117L13.8174 18.0608L13.6457 18.1681L13.3495 18.3445C12.741 18.702 12.0035 18.702 11.395 18.3445L11.0988 18.1669L10.7416 17.9416L10.5445 17.8117L10.1146 17.5185C9.11071 16.8191 8.17717 16.0173 7.32806 15.1251C5.79072 13.4887 4.30523 11.1824 4.30523 8.34327C4.30523 6.13049 5.15515 4.00835 6.66801 2.44369C8.18087 0.87902 10.2327 0 12.3722 0ZM12.3722 5.95948C11.761 5.95948 11.1747 6.21062 10.7425 6.65767C10.3102 7.10472 10.0674 7.71105 10.0674 8.34327C10.0674 8.97549 10.3102 9.58181 10.7425 10.0289C11.1747 10.4759 11.761 10.7271 12.3722 10.7271C12.9835 10.7271 13.5698 10.4759 14.002 10.0289C14.4343 9.58181 14.6771 8.97549 14.6771 8.34327C14.6771 7.71105 14.4343 7.10472 14.002 6.65767C13.5698 6.21062 12.9835 5.95948 12.3722 5.95948Z" fill="#D2261A"/>
</g>
<defs>
<clipPath id="clip0_434_17">
<rect width="24" height="24" fill="white"/>
</clipPath>
</defs>
</svg>
