<svg width="22" height="22" viewBox="0 0 22 22" fill="none" xmlns="http://www.w3.org/2000/svg">
<path d="M11 13.2C10.6537 13.2 10.3636 13.0944 10.1298 12.8832C9.89593 12.672 9.77859 12.4109 9.77778 12.1C9.77696 11.7891 9.8943 11.528 10.1298 11.3168C10.3653 11.1056 10.6553 11 11 11C11.3447 11 11.6351 11.1056 11.8714 11.3168C12.1077 11.528 12.2247 11.7891 12.2222 12.1C12.2198 12.4109 12.1024 12.6724 11.8702 12.8843C11.638 13.0962 11.3479 13.2015 11 13.2ZM6.11111 13.2C5.76481 13.2 5.47474 13.0944 5.24089 12.8832C5.00704 12.672 4.8897 12.4109 4.88889 12.1C4.88807 11.7891 5.00541 11.528 5.24089 11.3168C5.47637 11.1056 5.76644 11 6.11111 11C6.45578 11 6.74626 11.1056 6.98256 11.3168C7.21885 11.528 7.33578 11.7891 7.33333 12.1C7.33089 12.4109 7.21355 12.6724 6.98133 12.8843C6.74911 13.0962 6.45904 13.2015 6.11111 13.2ZM15.8889 13.2C15.5426 13.2 15.2525 13.0944 15.0187 12.8832C14.7848 12.672 14.6675 12.4109 14.6667 12.1C14.6659 11.7891 14.7832 11.528 15.0187 11.3168C15.2541 11.1056 15.5442 11 15.8889 11C16.2336 11 16.524 11.1056 16.7603 11.3168C16.9966 11.528 17.1136 11.7891 17.1111 12.1C17.1087 12.4109 16.9913 12.6724 16.7591 12.8843C16.5269 13.0962 16.2368 13.2015 15.8889 13.2ZM11 17.6C10.6537 17.6 10.3636 17.4944 10.1298 17.2832C9.89593 17.072 9.77859 16.8109 9.77778 16.5C9.77696 16.1891 9.8943 15.928 10.1298 15.7168C10.3653 15.5056 10.6553 15.4 11 15.4C11.3447 15.4 11.6351 15.5056 11.8714 15.7168C12.1077 15.928 12.2247 16.1891 12.2222 16.5C12.2198 16.8109 12.1024 17.0724 11.8702 17.2843C11.638 17.4962 11.3479 17.6015 11 17.6ZM6.11111 17.6C5.76481 17.6 5.47474 17.4944 5.24089 17.2832C5.00704 17.072 4.8897 16.8109 4.88889 16.5C4.88807 16.1891 5.00541 15.928 5.24089 15.7168C5.47637 15.5056 5.76644 15.4 6.11111 15.4C6.45578 15.4 6.74626 15.5056 6.98256 15.7168C7.21885 15.928 7.33578 16.1891 7.33333 16.5C7.33089 16.8109 7.21355 17.0724 6.98133 17.2843C6.74911 17.4962 6.45904 17.6015 6.11111 17.6ZM15.8889 17.6C15.5426 17.6 15.2525 17.4944 15.0187 17.2832C14.7848 17.072 14.6675 16.8109 14.6667 16.5C14.6659 16.1891 14.7832 15.928 15.0187 15.7168C15.2541 15.5056 15.5442 15.4 15.8889 15.4C16.2336 15.4 16.524 15.5056 16.7603 15.7168C16.9966 15.928 17.1136 16.1891 17.1111 16.5C17.1087 16.8109 16.9913 17.0724 16.7591 17.2843C16.5269 17.4962 16.2368 17.6015 15.8889 17.6ZM2.44444 22C1.77222 22 1.19696 21.7848 0.718667 21.3543C0.24037 20.9238 0.000814815 20.4057 0 19.8V4.4C0 3.795 0.239556 3.27727 0.718667 2.8468C1.19778 2.41633 1.77304 2.20073 2.44444 2.2H3.66667V0H6.11111V2.2H15.8889V0H18.3333V2.2H19.5556C20.2278 2.2 20.8034 2.4156 21.2826 2.8468C21.7617 3.278 22.0008 3.79573 22 4.4V19.8C22 20.405 21.7608 20.9231 21.2826 21.3543C20.8043 21.7855 20.2286 22.0007 19.5556 22H2.44444ZM2.44444 19.8H19.5556V8.8H2.44444V19.8Z" fill="#D2261A"/>
</svg>
