<svg width="22" height="22" viewBox="0 0 22 22" fill="none" xmlns="http://www.w3.org/2000/svg">
<g clip-path="url(#clip0_424_31)">
<path d="M11 15.0199L10.1579 14.1778L12.7246 11.6111H6.72222V10.3889H12.7246L10.1579 7.82222L11 6.98011L15.0199 11L11 15.0199ZM10.9963 22C12.5176 22 13.9476 21.7116 15.2863 21.1347C16.6251 20.557 17.7899 19.7731 18.7807 18.7831C19.7715 17.7931 20.5557 16.6296 21.1334 15.2924C21.7111 13.9553 22 12.5257 22 11.0037C22 9.48159 21.7111 8.05159 21.1334 6.71367C20.5566 5.37493 19.7739 4.21015 18.7856 3.21933C17.7972 2.22852 16.6332 1.44426 15.2937 0.866556C13.9541 0.288852 12.5241 0 11.0037 0C9.48322 0 8.05322 0.288852 6.71367 0.866556C5.37493 1.44344 4.21015 2.22648 3.21933 3.21567C2.22852 4.20485 1.44426 5.36881 0.866555 6.70755C0.288852 8.0463 2.38419e-07 9.47589 2.38419e-07 10.9963C2.38419e-07 12.5168 0.288445 13.9468 0.865334 15.2863C1.44222 16.6259 2.22607 17.7907 3.21689 18.7807C4.2077 19.7707 5.37126 20.5549 6.70756 21.1334C8.04385 21.712 9.47344 22.0008 10.9963 22ZM11 20.7778C8.27037 20.7778 5.95833 19.8306 4.06389 17.9361C2.16945 16.0417 1.22222 13.7296 1.22222 11C1.22222 8.27037 2.16945 5.95833 4.06389 4.06389C5.95833 2.16944 8.27037 1.22222 11 1.22222C13.7296 1.22222 16.0417 2.16944 17.9361 4.06389C19.8306 5.95833 20.7778 8.27037 20.7778 11C20.7778 13.7296 19.8306 16.0417 17.9361 17.9361C16.0417 19.8306 13.7296 20.7778 11 20.7778Z" fill="#D2261A"/>
</g>
<defs>
<clipPath id="clip0_424_31">
<rect width="22" height="22" fill="white" transform="matrix(-1 0 0 1 22 0)"/>
</clipPath>
</defs>
</svg>
