<svg width="22" height="22" viewBox="0 0 22 22" fill="none" xmlns="http://www.w3.org/2000/svg">
<g clip-path="url(#clip0_424_29)">
<path d="M11 15.0199L11.8421 14.1778L9.27544 11.6111H15.2778V10.3889H9.27544L11.8421 7.82222L11 6.98011L6.98011 11L11 15.0199ZM11.0037 22C9.48241 22 8.05241 21.7116 6.71367 21.1347C5.37493 20.557 4.21015 19.7731 3.21933 18.7831C2.22852 17.7931 1.44426 16.6296 0.866556 15.2924C0.288852 13.9553 0 12.5257 0 11.0037C0 9.48159 0.288852 8.05159 0.866556 6.71367C1.44344 5.37493 2.22607 4.21015 3.21444 3.21933C4.20281 2.22852 5.36678 1.44426 6.70633 0.866556C8.04589 0.288852 9.47589 0 10.9963 0C12.5168 0 13.9468 0.288852 15.2863 0.866556C16.6251 1.44344 17.7899 2.22648 18.7807 3.21567C19.7715 4.20485 20.5557 5.36881 21.1334 6.70755C21.7111 8.0463 22 9.47589 22 10.9963C22 12.5168 21.7116 13.9468 21.1347 15.2863C20.5578 16.6259 19.7739 17.7907 18.7831 18.7807C17.7923 19.7707 16.6287 20.5549 15.2924 21.1334C13.9561 21.712 12.5266 22.0008 11.0037 22ZM11 20.7778C13.7296 20.7778 16.0417 19.8306 17.9361 17.9361C19.8306 16.0417 20.7778 13.7296 20.7778 11C20.7778 8.27037 19.8306 5.95833 17.9361 4.06389C16.0417 2.16944 13.7296 1.22222 11 1.22222C8.27037 1.22222 5.95833 2.16944 4.06389 4.06389C2.16944 5.95833 1.22222 8.27037 1.22222 11C1.22222 13.7296 2.16944 16.0417 4.06389 17.9361C5.95833 19.8306 8.27037 20.7778 11 20.7778Z" fill="#D2261A"/>
</g>
<defs>
<clipPath id="clip0_424_29">
<rect width="22" height="22" fill="white"/>
</clipPath>
</defs>
</svg>
