<svg width="22" height="22" viewBox="0 0 22 22" fill="none" xmlns="http://www.w3.org/2000/svg">
<path fill-rule="evenodd" clip-rule="evenodd" d="M10.9796 2.35798C10.3227 2.34611 9.66986 2.46391 9.05852 2.70463C8.44719 2.94534 7.88932 3.30425 7.41685 3.76081C6.94438 4.21737 6.56658 4.76262 6.30508 5.36535C6.04357 5.96809 5.90349 6.61647 5.89286 7.27341V14.1437C5.89286 14.5605 5.7273 14.9602 5.4326 15.2549C5.1379 15.5496 4.7382 15.7151 4.32143 15.7151H2.35714C1.73199 15.7151 1.13244 15.4668 0.690391 15.0247C0.248341 14.5827 0 13.9831 0 13.358L0 10.2151C0 9.58997 0.248341 8.99042 0.690391 8.54837C1.13244 8.10632 1.73199 7.85798 2.35714 7.85798H3.53571V7.24512C3.55005 6.27931 3.75451 5.32578 4.1374 4.439C4.5203 3.55221 5.07413 2.74954 5.76728 2.07683C6.46042 1.40411 7.2793 0.874532 8.17714 0.518329C9.07498 0.162127 10.0342 -0.013719 11 0.000834922C11.9658 -0.013719 12.925 0.162127 13.8229 0.518329C14.7207 0.874532 15.5396 1.40411 16.2327 2.07683C16.9259 2.74954 17.4797 3.55221 17.8626 4.439C18.2455 5.32578 18.4499 6.27931 18.4643 7.24512V7.85798H19.6429C20.268 7.85798 20.8676 8.10632 21.3096 8.54837C21.7517 8.99042 22 9.58997 22 10.2151V13.358C22 13.9831 21.7517 14.5827 21.3096 15.0247C20.8676 15.4668 20.268 15.7151 19.6429 15.7151H18.4643V16.5008C18.4645 17.5627 18.0737 18.5875 17.3665 19.3797C16.6593 20.1718 15.6851 20.6758 14.63 20.7955C14.4251 21.1614 14.1263 21.466 13.7644 21.6778C13.4026 21.8897 12.9908 22.0012 12.5714 22.0008H10.2143C9.58913 22.0008 8.98958 21.7525 8.54753 21.3104C8.10548 20.8684 7.85714 20.2688 7.85714 19.6437C7.85714 19.0185 8.10548 18.419 8.54753 17.9769C8.98958 17.5349 9.58913 17.2865 10.2143 17.2865H12.5714C13.4231 17.2865 14.1696 17.7375 14.5829 18.4148C15.016 18.3153 15.4026 18.0718 15.6794 17.7242C15.9563 17.3765 16.1071 16.9453 16.1071 16.5008V7.27183C16.0964 6.61152 15.9548 5.95989 15.6907 5.35462C15.4265 4.74934 15.045 4.20243 14.5682 3.7455C14.0914 3.28857 13.5287 2.93068 12.9128 2.69252C12.2968 2.45436 11.6397 2.34065 10.9796 2.35798Z" fill="#D2261A"/>
</svg>
