<svg width="22" height="22" viewBox="0 0 22 22" fill="none" xmlns="http://www.w3.org/2000/svg">
<path d="M13.4659 9.41403C13.1249 10.7781 11.0016 10.0851 10.3415 9.89806L10.9466 7.49989C11.6287 7.6979 13.818 7.98393 13.4659 9.41403ZM10.0444 11.1301L9.38435 13.7813C10.1985 13.9903 12.7178 14.7934 13.0919 13.2973C13.4879 11.7352 10.8586 11.3282 10.0444 11.1301ZM21.6731 13.6603C20.1989 19.5567 14.236 23.143 8.3392 21.6689C2.44235 20.1948 -1.14086 14.2324 0.330049 8.33595C0.679506 6.93455 1.30163 5.61571 2.1609 4.45476C3.02016 3.29382 4.09973 2.3135 5.33795 1.56981C6.57616 0.826116 7.94876 0.333617 9.37736 0.120439C10.806 -0.0927383 12.2625 -0.0224182 13.664 0.327383C19.5498 1.80149 23.1363 7.76391 21.6731 13.6603ZM13.4329 6.65283L13.928 4.67269L12.7178 4.39767L12.2338 6.30081C11.9147 6.2238 11.5957 6.14679 11.2656 6.08079L11.7497 4.13365L10.5505 3.84763L10.0554 5.81677C9.79141 5.75077 9.52737 5.69576 9.28533 5.62976L7.6241 5.21173L7.29405 6.49882C7.29405 6.49882 8.19618 6.70783 8.17418 6.71883C8.66925 6.83984 8.75726 7.14787 8.73525 7.42288L7.38206 12.8463C7.32705 13.0003 7.15103 13.1983 6.83198 13.1433C6.84298 13.1543 5.95186 12.9233 5.95186 12.9233L5.35777 14.2984L6.91999 14.6944C7.21704 14.7714 7.50308 14.8484 7.78912 14.9144L7.28305 16.9166L8.49322 17.2246L8.98829 15.2334C9.31834 15.3214 9.63738 15.3984 9.94543 15.4865L9.45036 17.4556L10.6605 17.7636L11.1666 15.7615C13.2019 16.1465 14.7641 15.9925 15.4022 14.1334C15.9523 12.6483 15.4022 11.7682 14.3021 11.2072C15.0942 10.9981 15.6883 10.5031 15.8533 9.42503C16.0733 7.96192 14.9511 7.18087 13.4329 6.65283Z" fill="#D2261A"/>
</svg>
