<svg width="22" height="22" viewBox="0 0 22 22" fill="none" xmlns="http://www.w3.org/2000/svg">
<g clip-path="url(#clip0_423_27)">
<path d="M16.5 8.70833C16.5018 8.22772 16.352 7.75877 16.0718 7.36824C15.7917 6.97771 15.3955 6.68549 14.9396 6.53317C14.4838 6.38085 13.9915 6.37619 13.5329 6.51985C13.0742 6.66351 12.6726 6.94818 12.3851 7.33333H9.61583C9.2801 6.89988 8.79664 6.6051 8.25756 6.50514C7.71849 6.40519 7.16148 6.50705 6.69267 6.79132C6.22386 7.07559 5.87601 7.5224 5.71541 8.04662C5.55481 8.57083 5.59268 9.13581 5.8218 9.6339C6.05092 10.132 6.45529 10.5284 6.95784 10.7476C7.4604 10.9667 8.02602 10.9933 8.54693 10.8223C9.06784 10.6513 9.50764 10.2947 9.78253 9.82028C10.0574 9.34591 10.1482 8.78698 10.0375 8.25H11.9634C11.8997 8.56377 11.9024 8.88741 11.9715 9.20006C12.0405 9.51271 12.1743 9.80742 12.3642 10.0652C12.5541 10.323 12.7959 10.5381 13.074 10.6967C13.3521 10.8553 13.6604 10.9539 13.9789 10.9861C14.2975 11.0183 14.6193 10.9833 14.9235 10.8836C15.2277 10.7838 15.5077 10.6213 15.7453 10.4067C15.9829 10.1921 16.1729 9.93012 16.303 9.63759C16.4332 9.34506 16.4997 9.02851 16.5 8.70833ZM18.3333 4.58333H15.5833V1.83333C15.5833 1.3471 15.3902 0.880788 15.0464 0.536971C14.7025 0.193154 14.2362 0 13.75 0L8.25 0C7.76377 0 7.29745 0.193154 6.95364 0.536971C6.60982 0.880788 6.41667 1.3471 6.41667 1.83333V4.58333H3.66667V5.5H18.3333V4.58333ZM4.58333 15.5833H3.66667C2.69421 15.5833 1.76158 15.9696 1.07394 16.6573C0.386308 17.3449 0 18.2775 0 19.25L0 22H7.33333L6.41667 21.0833L8.25 19.25L4.58333 15.5833ZM18.3333 15.5833H17.4167L13.75 19.25L15.5833 21.0833L14.6667 22H22V19.25C22 18.2775 21.6137 17.3449 20.9261 16.6573C20.2384 15.9696 19.3058 15.5833 18.3333 15.5833ZM10.0833 18.3333H11.9167V22H10.0833V18.3333ZM11 16.5L10.0833 18.3333H11.9167L11 16.5Z" fill="#D2261A"/>
</g>
<defs>
<clipPath id="clip0_423_27">
<rect width="22" height="22" fill="white"/>
</clipPath>
</defs>
</svg>
